<svg width="48" height="48" viewBox="0 0 48 48" fill="none" xmlns="http://www.w3.org/2000/svg">
<rect width="48" height="48" fill="#323238"/>
<g clip-path="url(#clip0_61385:212)">
<path d="M17.6799 13.4447C16.0837 13.4447 14.9244 14.4428 14.9244 15.8156C14.9244 17.1932 16.1113 18.2353 17.6799 18.2353C19.2761 18.2353 20.4354 17.2179 20.4354 15.7875C20.3618 14.4099 19.2255 13.4447 17.6799 13.4447ZM15.3799 19.2C15.1269 19.2 14.9199 19.416 14.9199 19.68V33.6C14.9199 33.864 15.1269 34.08 15.3799 34.08H19.9799C20.2329 34.08 20.4399 33.864 20.4399 33.6V19.68C20.4399 19.416 20.2329 19.2 19.9799 19.2H15.3799ZM22.2799 19.2C22.0269 19.2 21.8199 19.416 21.8199 19.68V33.6C21.8199 33.864 22.0269 34.08 22.2799 34.08H26.4199C26.6738 34.08 26.8799 33.865 26.8799 33.6V26.4V26.28V26.16C26.8799 25.0224 27.7174 24.0958 28.7846 24.0094C28.8398 23.9998 28.8947 24 28.9499 24C29.0051 24 29.06 23.9998 29.1152 24.0094C30.1824 24.0958 31.0199 25.0224 31.0199 26.16V33.6C31.0199 33.865 31.226 34.08 31.4799 34.08H35.6199C35.8729 34.08 36.0799 33.864 36.0799 33.6V25.44C36.0799 22.3344 34.4833 19.2 30.9229 19.2C29.3037 19.2 28.0805 19.8529 27.3399 20.3953V19.68C27.3399 19.416 27.1329 19.2 26.8799 19.2H22.2799Z" fill="white"/>
</g>
<defs>
<clipPath id="clip0_61385:212">
<rect width="24.6857" height="19.2" fill="white" transform="translate(12 14.5712)"/>
</clipPath>
</defs>
</svg>
